<svg width="90" height="89" viewBox="0 0 90 89" fill="none" xmlns="http://www.w3.org/2000/svg">
<path d="M44.4115 32.6779C45.2582 33.0063 46.0888 32.2026 45.8081 31.3474C43.8819 25.4774 36.9075 23.2877 30.4241 28.4955C27.0137 31.2352 25.7322 31.8174 25.6999 31.8321C27.9481 34.055 30.5167 41.5143 36.1221 42.3393C42.297 43.4463 47.7621 37.4388 43.2908 34.6897C40.3502 32.882 36.8881 31.8319 33.1769 31.8319C37.0676 30.9646 40.9516 31.3365 44.4115 32.6779Z" fill="white"/>
<path d="M72.3723 28.4951C61.1807 19.5054 54.0433 33.6823 58.4799 32.277C61.6308 31.2789 65.0755 31.0615 68.5309 31.8316C62.6765 31.8316 57.2798 34.4848 53.6817 38.8033C53.9773 32.0167 54.4242 27.7686 54.9424 24.6086C57.9329 24.5069 61.9187 22.1188 64.1076 17.9401C67.8812 11.2618 66.1312 4.41442 65.568 0.093689C62.6194 2.93308 49.7391 -0.393937 44.633 8.25864C42.3775 12.0808 43.033 16.7319 45.4058 20.1356C46.1569 21.2131 47.9528 20.6961 48.004 19.3885C48.2269 13.7002 51.0897 9.40245 56.4267 7.0221C54.0319 10.0906 52.4594 13.526 51.6471 17.0768C50.3844 22.6081 49.0655 26.2365 48.5812 43.8662C48.532 45.6541 49.9967 47.1341 51.8053 47.1116C53.1145 47.0954 54.2361 46.2738 54.7396 45.0785C55.5054 43.2607 56.7518 41.3793 58.78 39.6555C60.7075 41.7622 63.6404 42.8832 66.6751 42.339C72.2567 41.5176 74.8615 34.042 77.0972 31.8314C77.0644 31.8172 75.7827 31.235 72.3723 28.4951Z" fill="white"/>
<path d="M88.8242 50.4617C85.3255 48.1143 81.5176 49.7871 79.7689 50.7856L57.8233 66.6691L44.9737 66.6719L41.7613 63.4952H53.5621C57.1112 63.4952 61.0859 61.2091 61.0859 57.1404C61.0859 52.8206 57.1112 50.7856 53.5621 50.7856H49.1398C45.8547 50.7856 42.0157 51.0752 39.3088 49.6423C36.7371 48.3482 33.7756 47.6118 30.6144 47.6118C25.3061 47.6118 20.5552 49.7045 17.2996 53.0047L0 69.8458L19.2744 88.9061L25.6993 79.376H56.0597C59.2976 79.376 62.4231 78.2014 64.8436 76.075L89.0439 54.8158C90.3893 53.6341 90.3134 51.461 88.8242 50.4617Z" fill="white"/>
</svg>
