<svg width="89" height="89" viewBox="0 0 89 89" fill="none" xmlns="http://www.w3.org/2000/svg">
<g clip-path="url(#clip0)">
<path d="M73.4744 27.0556C73.1803 22.3137 73.9602 17.5666 75.7559 13.168C76.1388 12.3856 75.8147 11.4409 75.0323 11.058C74.9462 11.0159 74.8562 10.9817 74.7639 10.9559C55.4256 5.80826 35.0698 5.86654 15.7612 11.1245L15.7712 11.184C14.9012 11.2912 14.2827 12.0832 14.3898 12.9532C14.4087 13.106 14.4496 13.255 14.5114 13.3961C16.2746 17.6616 16.9858 22.2889 16.5846 26.887C15.9299 36.033 12.5472 38.3245 10.4939 45.3873C8.8571 51.0217 10.0475 56.4082 13.2615 61.2589C19.7787 71.1787 33.4878 77.6067 44.588 80.8306C44.8794 80.9171 45.1894 80.9171 45.4808 80.8306C56.5612 77.5174 70.2306 70.9704 76.6586 60.9911C79.8329 56.0312 80.9836 50.6845 79.2973 45.0699C77.2042 38.0566 73.9704 36.2016 73.4744 27.0556Z" fill="white"/>
<path d="M86.9354 45.3774C84.5845 37.511 80.7951 36.519 81.0927 25.5379C81.4149 19.3864 82.8783 13.3485 85.4078 7.73192C85.45 7.64587 85.4842 7.55585 85.51 7.46359C85.7446 6.62463 85.2548 5.75442 84.4158 5.51982C57.1365 -1.92992 32.4661 -1.84064 5.25623 5.79757C5.15554 5.81716 5.05734 5.84642 4.96236 5.88486C4.15538 6.21321 3.76752 7.13326 4.09562 7.94024C6.68765 13.5615 8.2081 19.6168 8.57934 25.7958C8.95629 36.777 5.18679 37.7689 2.88541 45.7047C0.901458 52.5295 2.34974 59.0369 6.2482 64.9887C14.184 77.1206 31.0476 84.9869 44.6376 88.935C44.929 89.0216 45.239 89.0216 45.5304 88.935C59.0114 84.9076 75.7856 76.9023 83.7214 64.6812C87.5703 58.7294 88.969 52.1922 86.9354 45.3774ZM81.0828 62.975C73.7025 74.4026 57.6127 81.9813 45.0741 85.7904C32.4066 82.0507 16.3267 74.5811 8.88686 63.2627C5.48438 58.0945 4.21465 52.4402 5.91093 46.5777C8.23215 38.5327 12.1306 37.3424 11.7239 25.6966C11.3938 19.7251 10.0242 13.8574 7.67665 8.35687C33.0315 1.52216 56.4719 1.43288 81.8764 8.06919C79.5732 13.5876 78.2507 19.4655 77.968 25.4387C77.6109 37.6201 81.4994 38.1756 83.9198 46.2702C85.6657 52.1228 84.4357 57.7771 81.0828 62.975Z" fill="white"/>
<path d="M40.0507 27.7308V56H30.52V34.9192H25.6738V27.7308H40.0507ZM65.1687 45.2981H58.5052V51.7596H51.236V45.2981H44.5725V38.4327H51.236V31.9712H58.5052V38.4327H65.1687V45.2981Z" fill="#00CC52"/>
</g>
<defs>
<clipPath id="clip0">
<rect width="89" height="89" fill="white"/>
</clipPath>
</defs>
</svg>
