<svg width="154" height="37" viewBox="0 0 154 37" fill="none" xmlns="http://www.w3.org/2000/svg">
<path d="M18.1691 0.999998V36H6.36914V9.9H0.369141V0.999998H18.1691ZM38.3176 36.8C35.2176 36.8 32.4676 36.0833 30.0676 34.65C27.7009 33.1833 25.8342 31.0833 24.4676 28.35C23.1342 25.5833 22.4676 22.3 22.4676 18.5C22.4676 14.7 23.1342 11.4333 24.4676 8.7C25.8342 5.93333 27.7009 3.83333 30.0676 2.4C32.4676 0.933332 35.2176 0.199999 38.3176 0.199999C41.4176 0.199999 44.1509 0.933332 46.5176 2.4C48.9176 3.83333 50.7842 5.93333 52.1176 8.7C53.4842 11.4333 54.1676 14.7 54.1676 18.5C54.1676 22.3 53.4842 25.5833 52.1176 28.35C50.7842 31.0833 48.9176 33.1833 46.5176 34.65C44.1509 36.0833 41.4176 36.8 38.3176 36.8ZM38.3176 27.35C40.9842 27.35 42.3176 24.4 42.3176 18.5C42.3176 12.6 40.9842 9.65 38.3176 9.65C35.6509 9.65 34.3176 12.6 34.3176 18.5C34.3176 24.4 35.6509 27.35 38.3176 27.35ZM72.9367 36.8C69.8367 36.8 67.0867 36.0833 64.6867 34.65C62.3201 33.1833 60.4534 31.0833 59.0867 28.35C57.7534 25.5833 57.0867 22.3 57.0867 18.5C57.0867 14.7 57.7534 11.4333 59.0867 8.7C60.4534 5.93333 62.3201 3.83333 64.6867 2.4C67.0867 0.933332 69.8367 0.199999 72.9367 0.199999C76.0367 0.199999 78.7701 0.933332 81.1367 2.4C83.5367 3.83333 85.4034 5.93333 86.7367 8.7C88.1034 11.4333 88.7867 14.7 88.7867 18.5C88.7867 22.3 88.1034 25.5833 86.7367 28.35C85.4034 31.0833 83.5367 33.1833 81.1367 34.65C78.7701 36.0833 76.0367 36.8 72.9367 36.8ZM72.9367 27.35C75.6034 27.35 76.9367 24.4 76.9367 18.5C76.9367 12.6 75.6034 9.65 72.9367 9.65C70.2701 9.65 68.9367 12.6 68.9367 18.5C68.9367 24.4 70.2701 27.35 72.9367 27.35ZM107.556 36.8C104.456 36.8 101.706 36.0833 99.3059 34.65C96.9392 33.1833 95.0725 31.0833 93.7059 28.35C92.3725 25.5833 91.7059 22.3 91.7059 18.5C91.7059 14.7 92.3725 11.4333 93.7059 8.7C95.0725 5.93333 96.9392 3.83333 99.3059 2.4C101.706 0.933332 104.456 0.199999 107.556 0.199999C110.656 0.199999 113.389 0.933332 115.756 2.4C118.156 3.83333 120.023 5.93333 121.356 8.7C122.723 11.4333 123.406 14.7 123.406 18.5C123.406 22.3 122.723 25.5833 121.356 28.35C120.023 31.0833 118.156 33.1833 115.756 34.65C113.389 36.0833 110.656 36.8 107.556 36.8ZM107.556 27.35C110.223 27.35 111.556 24.4 111.556 18.5C111.556 12.6 110.223 9.65 107.556 9.65C104.889 9.65 103.556 12.6 103.556 18.5C103.556 24.4 104.889 27.35 107.556 27.35ZM153.125 22.75H144.875V30.75H135.875V22.75H127.625V14.25H135.875V6.25H144.875V14.25H153.125V22.75Z" fill="white"/>
</svg>
