<svg width="89" height="89" viewBox="0 0 89 89" fill="none" xmlns="http://www.w3.org/2000/svg">
<g clip-path="url(#clip0)">
<path d="M26.7023 45.9832C30.7981 45.9832 34.1184 42.6629 34.1184 38.5671C34.1184 34.4713 30.7981 31.151 26.7023 31.151C22.6065 31.151 19.2862 34.4713 19.2862 38.5671C19.2862 42.6629 22.6065 45.9832 26.7023 45.9832Z" fill="white"/>
<path d="M52.0992 35.3559L51.1648 35.2388C48.7636 34.9377 46.7744 33.4262 45.9705 31.292C45.8311 30.9226 45.6813 30.5578 45.5197 30.1943C44.5585 28.0349 44.919 25.463 46.46 23.4829L46.9317 22.8763C47.3901 22.286 47.3381 21.4465 46.8087 20.9169L44.3496 18.4578C43.8215 17.9297 42.9806 17.8779 42.3888 18.3361L41.7836 18.8063C39.805 20.3473 37.2315 20.7092 35.0721 19.7466C34.7086 19.5849 34.3424 19.4351 33.9731 19.2957C31.8402 18.4918 30.3273 16.5013 30.0277 14.1015L29.9105 13.1671C29.8186 12.4254 29.1868 11.8678 28.4392 11.8678H24.961C24.2134 11.8678 23.5816 12.424 23.4897 13.1671L23.3725 14.1015C23.0715 16.5027 21.56 18.4932 19.4271 19.2957C19.0564 19.4351 18.69 19.5849 18.3281 19.7466C16.1671 20.7033 13.5952 20.3459 11.6167 18.8063L11.0114 18.3345C10.4212 17.8732 9.58008 17.9266 9.05203 18.4562L6.58997 20.9153C6.06053 21.4434 6.00856 22.2829 6.46691 22.8747L6.93863 23.4813C8.47967 25.4614 8.83859 28.0333 7.87897 30.1943C7.71732 30.5578 7.56749 30.9226 7.42809 31.292C6.62421 33.4248 4.63369 34.9377 2.23385 35.2374L1.29943 35.3545C0.557767 35.4465 0 36.0783 0 36.8259V40.304C0 41.0516 0.557594 41.6834 1.29926 41.7754L2.23211 41.8925C4.63335 42.1936 6.62386 43.705 7.42775 45.8393C7.56714 46.2087 7.71697 46.5735 7.87862 46.9369C8.83824 49.0966 8.47932 51.6683 6.93829 53.6484L6.46812 54.255C6.00839 54.8453 6.06175 55.6848 6.59118 56.2144L9.0503 58.6735C9.57834 59.2045 10.4193 59.2565 11.0097 58.7966L11.6149 58.3264C13.595 56.7854 16.1669 56.4235 18.3264 57.3861C18.6898 57.5477 19.056 57.6976 19.4254 57.837C21.5583 58.6408 23.0711 60.6314 23.3708 63.0312L23.4879 63.9656C23.5799 64.7073 24.2117 65.2649 24.9593 65.2649H28.4375C29.185 65.2649 29.8168 64.7087 29.9088 63.9656L30.0259 63.0312C30.3256 60.63 31.8385 58.6394 33.9713 57.837C34.3421 57.6976 34.7085 57.5477 35.0704 57.3861C37.2298 56.4265 39.8017 56.7854 41.7834 58.3264L42.3886 58.7966C42.9775 59.2549 43.8184 59.203 44.348 58.6735L46.8071 56.2144C47.3381 55.6864 47.3915 54.8484 46.9317 54.2566L46.46 53.65C44.919 51.6699 44.5585 49.098 45.5197 46.9369C45.6799 46.5735 45.8311 46.2087 45.9705 45.8393C46.7744 43.7064 48.7649 42.1936 51.1648 41.8939L52.0992 41.7768C52.8409 41.6848 53.3985 41.053 53.3985 40.3054V36.8272C53.3985 36.0798 52.8423 35.4479 52.0992 35.3559ZM26.7023 48.9495C20.977 48.9495 16.3199 44.2922 16.3199 38.5671C16.3199 32.8419 20.9772 28.1847 26.7023 28.1847C32.4273 28.1847 37.0847 32.842 37.0847 38.5671C37.0847 44.2924 32.4273 48.9495 26.7023 48.9495Z" fill="white"/>
<path d="M66.7489 72.6809C70.0255 72.6809 72.6817 70.0247 72.6817 66.7481C72.6817 63.4715 70.0255 60.8153 66.7489 60.8153C63.4724 60.8153 60.8162 63.4715 60.8162 66.7481C60.8162 70.0247 63.4724 72.6809 66.7489 72.6809Z" fill="white"/>
<path d="M87.6976 63.844L86.9278 63.7475C85.0471 63.5116 83.4897 62.3311 82.8623 60.6668C82.7465 60.3583 82.6205 60.0514 82.4856 59.7458C81.7337 58.0549 82.0184 56.0392 83.2273 54.4864L83.6159 53.988C84.0757 53.3978 84.0223 52.5567 83.4943 52.0286L81.4681 50.0041C80.9401 49.4746 80.1006 49.4227 79.5103 49.881L79.0104 50.2696C77.456 51.4785 75.4403 51.7618 73.7494 51.0113C73.4454 50.8764 73.1398 50.7518 72.8298 50.6347C71.1641 50.0072 69.9836 48.4498 69.7491 46.5707L69.6526 45.8009C69.5607 45.0579 68.9289 44.5016 68.1813 44.5016H65.3172C64.5696 44.5016 63.9378 45.0579 63.8443 45.8009L63.7494 46.5707C63.5135 48.4514 62.333 50.0088 60.6673 50.6362C60.3588 50.7534 60.0518 50.878 59.7492 51.0129C58.0568 51.7618 56.0427 51.4801 54.4869 50.2698L53.9885 49.8827C53.3983 49.4244 52.5587 49.4793 52.0307 50.0058L50.0061 52.0304C49.4767 52.5584 49.4247 53.3993 49.8831 53.9898L50.2717 54.4881C51.4806 56.0425 51.7653 58.0582 51.0134 59.7491C50.8783 60.0531 50.7539 60.3602 50.6381 60.6672C50.0106 62.3328 48.4519 63.5134 46.5712 63.7492L45.8014 63.8457C45.0597 63.9377 44.5021 64.5695 44.5021 65.317V68.1811C44.5021 68.9287 45.0583 69.5605 45.8014 69.6525L46.5712 69.7489C48.4519 69.9848 50.0092 71.1653 50.6367 72.8296C50.7539 73.1381 50.8785 73.4451 51.0134 73.7506C51.7653 75.4415 51.4806 77.4572 50.2717 79.0101L49.8831 79.5084C49.4233 80.0987 49.4767 80.9397 50.0061 81.4678L52.0307 83.4924C52.5601 84.0204 53.3983 84.0738 53.9885 83.6154L54.4884 83.2268C56.0428 82.0179 58.0586 81.7346 59.7494 82.4851C60.0534 82.6202 60.359 82.7446 60.6675 82.8618C62.3331 83.4892 63.5137 85.0466 63.7496 86.9257L63.8445 87.6955C63.9364 88.4386 64.5682 88.9948 65.3174 88.9948H68.1815C68.929 88.9948 69.5608 88.4386 69.6528 87.6955L69.7477 86.9257C69.9836 85.045 71.1641 83.4877 72.8313 82.8588C73.1398 82.7417 73.4468 82.617 73.7494 82.4822C75.4403 81.7302 77.456 82.0134 79.0104 83.2252L79.5087 83.6123C80.099 84.0706 80.9385 84.0173 81.4665 83.4892L83.4925 81.4647C84.0206 80.9366 84.0739 80.0957 83.6142 79.5053L83.2255 79.0069C82.0167 77.4525 81.7334 75.4368 82.4839 73.746C82.6189 73.4419 82.7449 73.1348 82.8605 72.8279C83.488 71.1622 85.0468 69.9817 86.926 69.7458L87.6959 69.6493C88.4375 69.5574 88.9937 68.9256 88.9937 68.178V65.3139C88.997 64.5677 88.4393 63.9375 87.6976 63.844ZM66.7489 75.6473C61.8425 75.6473 57.8496 71.656 57.8496 66.748C57.8496 61.8401 61.8425 57.8488 66.7489 57.8488C71.6569 57.8488 75.6481 61.8401 75.6481 66.748C75.6481 71.656 71.6553 75.6473 66.7489 75.6473Z" fill="white"/>
<path d="M69.7152 22.2519C71.3535 22.2519 72.6817 20.9238 72.6817 19.2854C72.6817 17.6471 71.3535 16.319 69.7152 16.319C68.0769 16.319 66.7487 17.6471 66.7487 19.2854C66.7487 20.9238 68.0769 22.2519 69.7152 22.2519Z" fill="white"/>
<path d="M87.6976 16.586L87.0376 16.5029C85.5277 16.3145 84.2269 15.3296 83.7256 13.9963C83.6248 13.7278 83.5149 13.4608 83.3978 13.1983C82.7853 11.8205 83.018 10.1755 84.006 8.906L84.3397 8.47877C84.7994 7.8885 84.7476 7.04898 84.218 6.51937L82.4827 4.78402C81.9546 4.25597 81.1137 4.204 80.5233 4.66096L80.0946 4.99468C78.8249 5.98246 77.1786 6.21676 75.8023 5.60424C75.5369 5.48553 75.2699 5.37724 75.0029 5.27643C73.6488 4.76629 72.6876 3.49658 72.4964 1.96441L72.4149 1.30444C72.3229 0.562782 71.6911 0.00518799 70.942 0.00518799H68.4872C67.7396 0.00518799 67.1078 0.562782 67.0159 1.30444L66.9343 1.96302C66.7459 3.47294 65.7611 4.77376 64.4307 5.27504C64.1608 5.37585 63.8923 5.4857 63.6282 5.60424C62.2518 6.21537 60.6054 5.98403 59.3344 4.99468L58.9057 4.66252C58.3155 4.20278 57.4759 4.25615 56.9479 4.78558L55.2125 6.52094C54.6831 7.05037 54.6311 7.88989 55.0909 8.48034L55.423 8.90757C56.4108 10.1787 56.6451 11.8236 56.0326 13.1999C55.9154 13.4639 55.8072 13.7293 55.7048 13.9993C55.2035 15.3328 53.9027 16.316 52.3928 16.5044L51.7328 16.5875C50.9911 16.6795 50.4335 17.3113 50.4335 18.0589V20.5136C50.4335 21.2612 50.9897 21.893 51.7328 21.985L52.3928 22.068C53.9041 22.2564 55.2035 23.2413 55.7062 24.5746C55.807 24.843 55.9168 25.1101 56.034 25.3726C56.6465 26.7504 56.4122 28.3954 55.4244 29.6649L55.0923 30.0921C54.6325 30.6824 54.6843 31.5219 55.2139 32.0515L56.9493 33.7869C57.4773 34.3163 58.3182 34.3699 58.9087 33.9099L59.3373 33.5762C60.607 32.5884 62.2518 32.3555 63.6296 32.9667C63.895 33.0854 64.162 33.1937 64.429 33.2945C65.7832 33.8046 66.7442 35.0743 66.9342 36.6065L67.0173 37.2665C67.1092 38.0081 67.741 38.5657 68.4886 38.5657H70.9434C71.6909 38.5657 72.3227 38.0081 72.4162 37.2665L72.4978 36.6079C72.6891 35.0743 73.6502 33.8046 75.0014 33.2959C75.2713 33.1951 75.5399 33.0852 75.8039 32.9667C77.1803 32.3541 78.8267 32.5869 80.0978 33.5762L80.5264 33.9084C81.1167 34.3667 81.9562 34.3134 82.4858 33.7853L84.2211 32.05C84.7506 31.5205 84.8025 30.681 84.3428 30.0906L84.0107 29.6633C83.0213 28.3922 82.7886 26.7473 83.4011 25.371C83.5182 25.107 83.6281 24.8416 83.7289 24.5716C84.2317 23.2381 85.531 22.2549 87.0423 22.0665L87.7023 21.9834C88.4439 21.8914 89.0001 21.2596 89.0001 20.5121V18.0573C88.997 17.3097 88.4392 16.6795 87.6976 16.586ZM69.7152 25.2182C66.4431 25.2182 63.7824 22.5573 63.7824 19.2855C63.7824 16.0136 66.4433 13.3527 69.7152 13.3527C72.9872 13.3527 75.648 16.0136 75.648 19.2855C75.648 22.5573 72.9857 25.2182 69.7152 25.2182Z" fill="white"/>
</g>
<defs>
<clipPath id="clip0">
<rect width="89" height="89" fill="white"/>
</clipPath>
</defs>
</svg>
