<svg width="224" height="196" viewBox="0 0 224 196" fill="none" xmlns="http://www.w3.org/2000/svg">
<g opacity="0.08" clip-path="url(#clip0)">
<path d="M20.25 214.907V194.734C20.25 194.734 70.875 174.561 121.5 174.561C172.125 174.561 222.75 194.734 222.75 194.734V214.907H20.25ZM114.412 84.7892C102.262 45.4511 40.5 54.5291 40.5 54.5291C40.5 54.5291 42.525 133.205 100.237 121.101C96.1875 91.8498 81 83.7805 81 83.7805C109.35 83.7805 111.375 118.075 111.375 118.075V164.474H131.625V122.11C131.625 122.11 131.625 82.7718 162 72.6852C162 72.6852 141.75 102.945 141.75 123.119C212.625 130.179 212.625 33.3471 212.625 33.3471C212.625 33.3471 122.512 23.2605 114.412 84.7892Z" fill="black"/>
</g>
<defs>
<clipPath id="clip0">
<rect width="224" height="196" fill="white"/>
</clipPath>
</defs>
</svg>
