<svg width="36" height="36" viewBox="0 0 36 36" fill="none" xmlns="http://www.w3.org/2000/svg">
<g clip-path="url(#clip0)">
<path d="M35.6796 9.77586C35.514 9.53659 35.2929 9.34102 35.0353 9.2059C34.7776 9.07079 34.491 9.00015 34.2 9.00006H9.5994L7.5222 4.01406C7.24984 3.35746 6.78864 2.79652 6.19708 2.40236C5.60553 2.0082 4.91025 1.79857 4.1994 1.80006H0V5.40006H4.1994L12.7386 25.8931C12.8754 26.2209 13.1061 26.501 13.4018 26.698C13.6974 26.895 14.0447 27.0001 14.4 27.0001H28.8C29.5506 27.0001 30.222 26.5339 30.4866 25.8337L35.8866 11.4337C35.9887 11.1612 36.0231 10.868 35.9871 10.5793C35.951 10.2906 35.8455 10.0149 35.6796 9.77586V9.77586Z" fill="#00CC52"/>
<path d="M15.3 34.2C16.7911 34.2 18 32.9912 18 31.5C18 30.0089 16.7911 28.8 15.3 28.8C13.8088 28.8 12.6 30.0089 12.6 31.5C12.6 32.9912 13.8088 34.2 15.3 34.2Z" fill="#00CC52"/>
<path d="M27.9 34.2C29.3912 34.2 30.6 32.9912 30.6 31.5C30.6 30.0089 29.3912 28.8 27.9 28.8C26.4088 28.8 25.2 30.0089 25.2 31.5C25.2 32.9912 26.4088 34.2 27.9 34.2Z" fill="#00CC52"/>
</g>
<defs>
<clipPath id="clip0">
<rect width="36" height="36" fill="white"/>
</clipPath>
</defs>
</svg>
