<svg width="36" height="36" viewBox="0 0 36 36" fill="none" xmlns="http://www.w3.org/2000/svg">
<path d="M25.5 4C23.7636 4 22.1716 4.54538 20.7683 5.62103C19.423 6.65226 18.5273 7.96572 18 8.92081C17.4727 7.96565 16.577 6.65226 15.2317 5.62103C13.8284 4.54538 12.2364 4 10.5 4C5.65425 4 2 7.92849 2 13.138C2 18.7662 6.55894 22.6168 13.4606 28.4462C14.6326 29.4362 15.961 30.5583 17.3418 31.7551C17.5238 31.913 17.7575 32 18 32C18.2425 32 18.4763 31.913 18.6583 31.7551C20.0391 30.5582 21.3675 29.4361 22.5402 28.4456C29.4411 22.6168 34 18.7662 34 13.138C34 7.92849 30.3457 4 25.5 4Z" fill="#00CC52"/>
</svg>
