<svg width="42" height="47" viewBox="0 0 42 47" fill="none" xmlns="http://www.w3.org/2000/svg">
<g clip-path="url(#clip0)">
<path d="M12.1751 0C13.8829 0.154369 15.5319 0.405359 17.114 0.757711C26.1219 2.76358 37.343 9.46693 37.343 20.8362C37.343 24.9293 35.8786 28.7951 33.1996 31.8364C32.6859 22.7487 28.9875 14.2023 22.6782 7.61329C19.5453 4.34131 15.9273 1.74763 12.1751 0V0Z" fill="#FEB618"/>
<path d="M30.4734 46.0353C30.4734 46.8057 29.8489 47.4302 29.0785 47.4302C28.3082 47.4302 27.6836 46.8057 27.6836 46.0353V38.991C28.6447 38.621 29.5775 38.174 30.4734 37.6516V46.0353Z" fill="white"/>
<path d="M0.142103 1.25031C0.314886 0.65394 0.861034 0.243652 1.48186 0.243652C7.91729 0.243745 15.0879 3.72003 20.6633 9.54273C26.8757 16.0307 30.3587 24.5668 30.4706 33.5782C30.4706 33.5812 30.4704 33.5842 30.4704 33.5871C30.4722 33.591 30.4734 33.5937 30.4734 33.5937V34.3225C30.2664 34.4733 30.0566 34.6196 29.8435 34.7602C23.3733 39.0245 14.5732 38.2999 8.89465 32.6211C3.98162 27.7081 5.00073 20.939 5.33644 17.1402C5.84902 11.3407 6.29167 6.33203 0.736145 2.81725C0.211477 2.48535 -0.0306778 1.84658 0.142103 1.25031Z" fill="white"/>
</g>
<defs>
<clipPath id="clip0">
<rect width="42" height="47" fill="white" transform="matrix(-1 0 0 1 42 0)"/>
</clipPath>
</defs>
</svg>
