<svg width="17" height="17" viewBox="0 0 17 17" fill="none" xmlns="http://www.w3.org/2000/svg">
<path d="M15.4062 2.65625H1.59375C1.45285 2.65625 1.31773 2.71222 1.2181 2.81185C1.11847 2.91148 1.0625 3.0466 1.0625 3.1875V13.8125C1.0625 13.9534 1.11847 14.0885 1.2181 14.1882C1.31773 14.2878 1.45285 14.3438 1.59375 14.3438H15.4062C15.5471 14.3438 15.6823 14.2878 15.7819 14.1882C15.8815 14.0885 15.9375 13.9534 15.9375 13.8125V3.1875C15.9375 3.0466 15.8815 2.91148 15.7819 2.81185C15.6823 2.71222 15.5471 2.65625 15.4062 2.65625ZM8.82606 9.45061C8.73282 9.52309 8.61809 9.56243 8.5 9.56243C8.38191 9.56243 8.26718 9.52309 8.17394 9.45061L2.97334 5.4058L3.62545 4.56709L8.5 8.35822L13.3746 4.56709L14.0267 5.4058L8.82606 9.45061Z" fill="#FEB618"/>
</svg>
