<svg width="16" height="16" viewBox="0 0 16 16" fill="none" xmlns="http://www.w3.org/2000/svg">
<path d="M13.855 2.14488C13.7875 2.07772 13.7023 2.03122 13.6093 2.01085C13.5163 1.99048 13.4194 1.99708 13.33 2.02988L2.33 6.02988C2.23513 6.06587 2.15346 6.12986 2.09583 6.21336C2.03819 6.29686 2.00732 6.39592 2.00732 6.49738C2.00732 6.59885 2.03819 6.69791 2.09583 6.78141C2.15346 6.86491 2.23513 6.9289 2.33 6.96488L6.625 8.67988L9.795 5.49988L10.5 6.20488L7.315 9.38988L9.035 13.6849C9.07205 13.7779 9.13619 13.8577 9.21909 13.9138C9.302 13.97 9.39986 14 9.5 13.9999C9.60104 13.9978 9.69909 13.9652 9.7812 13.9063C9.86332 13.8473 9.92566 13.7649 9.96 13.6699L13.96 2.66988C13.9941 2.58142 14.0023 2.4851 13.9837 2.39215C13.9651 2.29919 13.9205 2.21344 13.855 2.14488Z" fill="#00CC52"/>
</svg>
