<svg width="17" height="17" viewBox="0 0 17 17" fill="none" xmlns="http://www.w3.org/2000/svg">
<path d="M2.29766 3.82168L4.06572 2.05527C4.19044 1.93 4.33869 1.83061 4.50194 1.7628C4.66518 1.695 4.84022 1.66011 5.01699 1.66016C5.37724 1.66016 5.71592 1.80127 5.96992 2.05527L7.87246 3.95781C7.99773 4.08253 8.09712 4.23078 8.16493 4.39403C8.23274 4.55727 8.26762 4.73231 8.26758 4.90908C8.26758 5.26934 8.12646 5.60801 7.87246 5.86201L6.48125 7.25322C6.8069 7.97101 7.25966 8.62399 7.81768 9.18066C8.37429 9.74004 9.02722 10.1944 9.74512 10.5221L11.1363 9.13086C11.261 9.00559 11.4093 8.9062 11.5725 8.83839C11.7358 8.77058 11.9108 8.7357 12.0876 8.73574C12.4479 8.73574 12.7865 8.87686 13.0405 9.13086L14.9447 11.0317C15.0701 11.1567 15.1696 11.3052 15.2374 11.4687C15.3052 11.6323 15.34 11.8076 15.3398 11.9847C15.3398 12.3449 15.1987 12.6836 14.9447 12.9376L13.18 14.7023C12.7749 15.1091 12.2154 15.3398 11.641 15.3398C11.5198 15.3398 11.4036 15.3299 11.2891 15.31C9.05117 14.9414 6.83154 13.7511 5.04023 11.9614C3.25058 10.1734 2.06191 7.95547 1.68838 5.71094C1.57549 5.02529 1.80293 4.31973 2.29766 3.82168Z" fill="#FEB618"/>
</svg>
