<svg width="14" height="14" viewBox="0 0 14 14" fill="none" xmlns="http://www.w3.org/2000/svg">
<g clip-path="url(#clip0)">
<path d="M13.8754 3.80092C13.811 3.70787 13.725 3.63182 13.6248 3.57927C13.5246 3.52673 13.4132 3.49926 13.3 3.49922H3.7331L2.9253 1.56022C2.81938 1.30488 2.64003 1.08673 2.40998 0.933449C2.17993 0.780165 1.90954 0.698644 1.6331 0.699222H0V2.09922H1.6331L4.9539 10.0687C5.00709 10.1962 5.09682 10.3051 5.2118 10.3818C5.32677 10.4584 5.46184 10.4992 5.6 10.4992H11.2C11.4919 10.4992 11.753 10.3179 11.8559 10.0456L13.9559 4.44562C13.9956 4.33966 14.009 4.22565 13.995 4.11337C13.981 4.00108 13.9399 3.89387 13.8754 3.80092Z" fill="white"/>
<path d="M5.94941 13.3002C6.52931 13.3002 6.99941 12.8301 6.99941 12.2502C6.99941 11.6703 6.52931 11.2002 5.94941 11.2002C5.36952 11.2002 4.89941 11.6703 4.89941 12.2502C4.89941 12.8301 5.36952 13.3002 5.94941 13.3002Z" fill="white"/>
<path d="M10.8498 13.3002C11.4297 13.3002 11.8998 12.8301 11.8998 12.2502C11.8998 11.6703 11.4297 11.2002 10.8498 11.2002C10.2699 11.2002 9.7998 11.6703 9.7998 12.2502C9.7998 12.8301 10.2699 13.3002 10.8498 13.3002Z" fill="white"/>
</g>
<defs>
<clipPath id="clip0">
<rect width="14" height="14" fill="white"/>
</clipPath>
</defs>
</svg>
