<svg width="18" height="18" viewBox="0 0 18 18" fill="none" xmlns="http://www.w3.org/2000/svg">
<g clip-path="url(#clip0)">
<path d="M17.8398 4.8879C17.757 4.76826 17.6465 4.67048 17.5176 4.60292C17.3888 4.53536 17.2455 4.50005 17.1 4.5H4.7997L3.7611 2.007C3.62492 1.6787 3.39432 1.39823 3.09854 1.20115C2.80276 1.00407 2.45512 0.899255 2.0997 0.899998H0V2.7H2.0997L6.3693 12.9465C6.43769 13.1104 6.55306 13.2505 6.70088 13.349C6.8487 13.4475 7.02237 13.5 7.2 13.5H14.4C14.7753 13.5 15.111 13.2669 15.2433 12.9168L17.9433 5.7168C17.9943 5.58056 18.0116 5.43398 17.9935 5.28961C17.9755 5.14525 17.9228 5.00741 17.8398 4.8879Z" fill="white"/>
<path d="M7.65002 17.1C8.3956 17.1 9.00002 16.4956 9.00002 15.75C9.00002 15.0044 8.3956 14.4 7.65002 14.4C6.90443 14.4 6.30002 15.0044 6.30002 15.75C6.30002 16.4956 6.90443 17.1 7.65002 17.1Z" fill="white"/>
<path d="M13.95 17.1C14.6956 17.1 15.3 16.4956 15.3 15.75C15.3 15.0044 14.6956 14.4 13.95 14.4C13.2044 14.4 12.6 15.0044 12.6 15.75C12.6 16.4956 13.2044 17.1 13.95 17.1Z" fill="white"/>
</g>
<defs>
<clipPath id="clip0">
<rect width="18" height="18" fill="white"/>
</clipPath>
</defs>
</svg>
