<svg width="20" height="20" viewBox="0 0 20 20" fill="none" xmlns="http://www.w3.org/2000/svg">
<path d="M13.3833 10.9083L18.075 15.5666L15.3083 18.3L10.65 13.6416V12.875L12.6167 10.9083H13.3833ZM14.1417 8.79996L13.3333 7.99996L9.34166 12V13.6416L4.65 18.3333L1.91666 15.5666L6.575 10.9083H8.21666L8.86666 10.2583L5.66666 7.04996H4.58333L2.24166 4.68329L4.425 2.49996L6.75833 4.83329V5.92496L10 9.12496L12.2167 6.90829L11.4167 6.06663L12.5 4.97496H10.2833L9.74166 4.43329L12.5 1.66663L13.05 2.21663V4.43329L14.1417 3.33329L16.875 6.06663C17.7833 6.98329 17.7833 8.47496 16.875 9.38329L15.2333 7.70829L14.1417 8.79996Z" fill="#00CC52"/>
</svg>
