<svg width="16" height="16" viewBox="0 0 16 16" fill="none" xmlns="http://www.w3.org/2000/svg">
<path d="M11.3187 7.564C11.7487 6.926 12 6.15866 12 5.33334V4C12 1.794 10.206 0 8 0C5.794 0 4 1.794 4 4V5.33334C4 6.15869 4.25134 6.926 4.68134 7.564C2.684 8.716 1.33334 10.8667 1.33334 13.3333V14C1.33334 15.1027 2.23069 16 3.33334 16H12.6667C13.7693 16 14.6667 15.1027 14.6667 14V13.3333C14.6667 10.8667 13.316 8.716 11.3187 7.564ZM5.33334 4C5.33334 2.52934 6.52934 1.33334 8 1.33334C9.47066 1.33334 10.6667 2.52934 10.6667 4V5.33334C10.6667 6.804 9.47066 8 8 8C6.52934 8 5.33334 6.804 5.33334 5.33334V4ZM13.3333 14C13.3333 14.3673 13.034 14.6667 12.6667 14.6667H3.33334C2.966 14.6667 2.66669 14.3673 2.66669 14V13.3333C2.66669 11.2407 3.87869 9.42669 5.63734 8.554C6.30069 9.04134 7.116 9.33334 8 9.33334C8.884 9.33334 9.69934 9.04134 10.3627 8.554C12.1213 9.42666 13.3333 11.2407 13.3333 13.3333V14H13.3333Z" fill="#00CC52"/>
</svg>
